<svg xmlns="http://www.w3.org/2000/svg" width="65" height="57" viewBox="0 0 65 57">
    <path fill="#006FFF" fill-rule="nonzero" d="M59.698 0A5.307 5.307 0 0 1 65 5.301v32.377a5.308 5.308 0 0 1-5.302 5.301H25.137L10.982 56.557a1.512 1.512 0 0 1-2.58-1.068v-12.51h-3.1A5.308 5.308 0 0 1 0 37.678V5.3A5.308 5.308 0 0 1 5.302 0h54.396zM38.51 10.005L35.392 10c-3.503 0-5.767 2.415-5.767 6.153v2.836H26.49a.5.5 0 0 0-.49.51v4.11a.5.5 0 0 0 .49.51h3.135V34.49a.5.5 0 0 0 .49.51h4.091a.5.5 0 0 0 .49-.51V24.12h3.666a.5.5 0 0 0 .49-.51l.002-4.11a.521.521 0 0 0-.144-.361.481.481 0 0 0-.347-.15h-3.667v-2.404c0-1.156.265-1.743 1.713-1.743h2.101a.5.5 0 0 0 .49-.51v-3.817a.5.5 0 0 0-.49-.51z"/>
</svg>
