<svg xmlns="http://www.w3.org/2000/svg" width="65" height="57" viewBox="0 0 65 57">
    <path fill="#006FFF" fill-rule="nonzero" d="M59.698 0A5.307 5.307 0 0 1 65 5.301v32.425a5.308 5.308 0 0 1-5.302 5.302H25.137l-14.155 13.53a1.512 1.512 0 0 1-2.58-1.07v-12.46h-3.1A5.308 5.308 0 0 1 0 37.727V5.3A5.308 5.308 0 0 1 5.302 0h54.396zM18.53 20.987l6.913 2.47 2.675 8.236c.171.527.845.722 1.292.372l3.854-3.007a1.19 1.19 0 0 1 1.401-.037l6.95 4.83c.478.332 1.156.081 1.276-.472l5.091-23.44c.131-.604-.49-1.108-1.09-.885l-28.37 10.474a.769.769 0 0 0 .008 1.46zm9.157 1.155l13.51-7.964c.243-.142.492.172.284.357l-11.15 9.92c-.392.349-.644.816-.716 1.323l-.38 2.694c-.05.36-.578.395-.682.047l-1.46-4.912a1.277 1.277 0 0 1 .594-1.465z"/>
</svg>
