<svg xmlns="http://www.w3.org/2000/svg" width="43" height="29" viewBox="0 0 43 29">
    <g fill="none" fill-rule="nonzero">
        <path fill="#41479B" d="M42.259 28.455H.74A.745.745 0 0 1 0 27.706V.772C0 .358.332.023.741.023H42.26c.409 0 .741.335.741.749v26.934a.745.745 0 0 1-.741.749z"/>
        <path fill="#F5F5F5" d="M43 .772a.745.745 0 0 0-.742-.749h-3.317L25.207 9.105V.023h-7.414v9.082L4.058.023H.741A.745.745 0 0 0 0 .772v1.935l11.784 7.791H0v7.482h11.784L0 25.771v1.935c0 .414.332.749.741.749h3.317l13.735-9.082v9.082h7.414v-9.082l13.735 9.082h3.317c.409 0 .741-.335.741-.749v-1.935l-11.784-7.79H43v-7.483H31.216L43 2.707V.772z"/>
        <path fill="#FF4B55" d="M43 11.994v4.49H23.724v11.97h-4.448v-11.97H0v-4.49h19.276V.024h4.448v11.97H43zM15.029 17.98h2.723L1.762 28.455H.742a.735.735 0 0 1-.721-.643l15.008-9.832zm14.062 0L43 27.091v.615a.738.738 0 0 1-.666.733L26.368 17.98h2.723zM0 1.598V.772C0 .47.178.215.432.096L16.31 10.498h-2.723L0 1.598zm27.93 8.9h-2.723L41.197.023h1.062c.364 0 .653.27.715.62L27.93 10.498z"/>
    </g>
</svg>
