<svg xmlns="http://www.w3.org/2000/svg" width="44" height="28" viewBox="0 0 44 28">
    <g fill="none" fill-rule="evenodd">
        <path fill="#C8414B" fill-rule="nonzero" d="M.754 27.977h42.219c.416 0 .754-.33.754-.736V.76a.745.745 0 0 0-.754-.736H.753A.745.745 0 0 0 0 .759V27.24c0 .407.338.736.754.736z"/>
        <path fill="#FFD250" fill-rule="nonzero" d="M0 5.908h43.727v16.184H0z"/>
        <path fill="#C8414B" fill-rule="nonzero" d="M18.47 14l.64-2.807a.417.417 0 0 0-.414-.503h-.45a.417.417 0 0 0-.414.503L18.47 14z"/>
        <path fill="#F5F5F5" fill-rule="nonzero" d="M17.717 12.528h1.508v6.253h-1.508z"/>
        <path fill="#FAB446" fill-rule="nonzero" d="M17.34 11.793h2.262v1H17.34z"/>
        <path fill="#C8414B" fill-rule="nonzero" d="M15.832 14h3.77v1h-3.77zM19.602 16.943l-2.262-.736v-.736l2.262.736zM7.162 14l.64-2.807a.417.417 0 0 0-.415-.503h-.45a.417.417 0 0 0-.414.503L7.163 14z"/>
        <path fill="#F5F5F5" fill-rule="nonzero" d="M9.8 11.793a.745.745 0 0 0-.753.736v4.781c0 .894.855 2.575 3.77 2.575 2.914 0 3.769-1.68 3.769-2.575V12.53a.745.745 0 0 0-.754-.736H9.801z"/>
        <path fill="#C8414B" fill-rule="nonzero" d="M12.816 15.471h-3.77V12.53c0-.406.339-.736.755-.736h3.015v3.678z"/>
        <path fill="#C8414B" fill-rule="nonzero" d="M12.816 15.471h3.77v1.84c0 1.015-.844 1.838-1.885 1.838-1.04 0-1.885-.823-1.885-1.839v-1.839z"/>
        <path fill="#FAB446" fill-rule="nonzero" d="M9.047 15.471h3.77v1.84c0 1.015-.844 1.838-1.885 1.838s-1.885-.823-1.885-1.839v-1.839z"/>
        <path fill="#C8414B" fill-rule="nonzero" d="M12.063 18.773v-3.302h-.754v3.641c.28-.055.533-.176.754-.339zM10.555 19.112v-3.64H9.8v3.301c.22.163.473.284.754.34z"/>
        <path fill="#FFB441" fill-rule="nonzero" d="M9.801 14h2.262v1H9.801z"/>
        <path fill="#FAB446" fill-rule="nonzero" d="M9.801 12.528h2.262v1H9.801z"/>
        <path fill="#FAB446" fill-rule="nonzero" d="M10.178 12.966h1.508v1.333h-1.508z"/>
        <path fill="#F5F5F5" fill-rule="nonzero" d="M6.408 12.528h1.508v6.253H6.408z"/>
        <path fill="#FAB446" fill-rule="nonzero" d="M6.031 18.414h2.262v1H6.031zM6.031 11.793h2.262v1H6.031z"/>
        <path fill="#5064AA" fill-rule="nonzero" d="M5.655 19.149h3.016v1H5.655z"/>
        <path fill="#FAB446" fill-rule="nonzero" d="M17.717 18.414h2.262v1h-2.262z"/>
        <path fill="#5064AA" fill-rule="nonzero" d="M16.963 19.149h3.016v1h-3.016z"/>
        <path fill="#FAB446" fill-rule="nonzero" d="M10.555 11.058h4.523v1h-4.523z"/>
        <path fill="#FFB441" fill-rule="nonzero" d="M12.44 8.851h1v2.207h-1z"/>
        <path fill="#F5F5F5" fill-rule="nonzero" d="M12.063 9.954c-.624 0-1.131-.495-1.131-1.103 0-.609.507-1.104 1.13-1.104.624 0 1.131.495 1.131 1.104 0 .608-.507 1.103-1.13 1.103zm0-1.471a.373.373 0 0 0-.377.368c0 .203.168.367.377.367a.373.373 0 0 0 .376-.367.373.373 0 0 0-.376-.368z"/>
        <path fill="#F5F5F5" fill-rule="nonzero" d="M13.57 9.954c-.623 0-1.13-.495-1.13-1.103 0-.609.507-1.104 1.13-1.104.624 0 1.131.495 1.131 1.104 0 .608-.507 1.103-1.13 1.103zm0-1.471a.373.373 0 0 0-.377.368c0 .203.17.367.377.367a.373.373 0 0 0 .377-.367.373.373 0 0 0-.377-.368z"/>
        <path fill="#F5F5F5" fill-rule="nonzero" d="M15.078 10.69c-.623 0-1.13-.495-1.13-1.104 0-.608.507-1.103 1.13-1.103.624 0 1.131.495 1.131 1.103 0 .609-.507 1.104-1.13 1.104zm0-1.471a.373.373 0 0 0-.377.367c0 .203.17.368.377.368a.373.373 0 0 0 .377-.368.373.373 0 0 0-.377-.367zM10.555 10.69c-.624 0-1.131-.495-1.131-1.104 0-.608.507-1.103 1.13-1.103.624 0 1.132.495 1.132 1.103 0 .609-.508 1.104-1.131 1.104zm0-1.471a.373.373 0 0 0-.377.367c0 .203.169.368.377.368a.373.373 0 0 0 .377-.368.373.373 0 0 0-.377-.367z"/>
        <path fill="#FAB446" fill-rule="nonzero" d="M15.078 16.943v.367c0 .203-.169.368-.377.368a.373.373 0 0 1-.377-.368v-.367h.754zm.754-.736H13.57v1.103c0 .609.508 1.104 1.131 1.104.624 0 1.131-.495 1.131-1.104v-1.103z"/>
        <path fill="#FFA0D2" fill-rule="nonzero" d="M14.701 14.736a.745.745 0 0 1-.754-.736v-.736c0-.406.338-.735.754-.735.417 0 .754.33.754.735V14a.745.745 0 0 1-.754.736z"/>
        <ellipse cx="12.817" cy="15.471" fill="#5064AA" fill-rule="nonzero" rx="1.131" ry="1.103"/>
        <path fill="#FAB446" fill-rule="nonzero" d="M12.44 7.379h1v2.207h-1z"/>
        <path fill="#C8414B" fill-rule="nonzero" d="M10.555 11.058l-.754-.736.441-.431a3.687 3.687 0 0 1 2.574-1.04c.966 0 1.892.374 2.575 1.04l.441.43-.754.737h-4.523z"/>
        <ellipse cx="12.817" cy="10.322" fill="#FFD250" fill-rule="nonzero" rx="1" ry="1"/>
        <ellipse cx="11.308" cy="10.322" fill="#FFD250" fill-rule="nonzero" rx="1" ry="1"/>
        <ellipse cx="14.324" cy="10.322" fill="#FFD250" fill-rule="nonzero" rx="1" ry="1"/>
        <path fill="#C8414B" fill-rule="nonzero" d="M6.031 14h3.77v1h-3.77zM6.031 16.943l2.262-.736v-.736l-2.262.736z"/>
    </g>
</svg>
