<svg xmlns="http://www.w3.org/2000/svg" width="44" height="28" viewBox="0 0 44 28">
    <g fill="none" fill-rule="nonzero">
        <path fill="#FF4B55" d="M42.973 27.977H.753A.745.745 0 0 1 0 27.241V.76C0 .352.338.023.754.023h42.219c.416 0 .754.33.754.736V27.24a.745.745 0 0 1-.754.736z"/>
        <path fill="#73AF00" d="M15.832.023H.754A.745.745 0 0 0 0 .76V27.24c0 .407.338.736.754.736h15.078V.023z"/>
        <ellipse cx="15.838" cy="14" fill="#FFE15A" rx="6.779" ry="6.615"/>
        <path fill="#FF4B55" d="M18.1 11.793v2.943c0 1.217-1.015 2.207-2.262 2.207s-2.262-.99-2.262-2.207v-2.943H18.1zm.754-1.471h-6.032a.745.745 0 0 0-.754.736v3.678c0 2.031 1.688 3.678 3.77 3.678s3.77-1.647 3.77-3.678v-3.678a.745.745 0 0 0-.754-.736z"/>
        <path fill="#F5F5F5" d="M18.1 11.793v2.943c0 1.217-1.015 2.207-2.262 2.207s-2.262-.99-2.262-2.207v-2.943H18.1"/>
        <g fill="#FFE15A" transform="translate(12.384 10.667)">
            <ellipse cx=".433" cy=".391" rx="1" ry="1"/>
            <ellipse cx="6.464" cy=".391" rx="1" ry="1"/>
            <ellipse cx=".433" cy="3.333" rx="1" ry="1"/>
            <ellipse cx="6.464" cy="3.333" rx="1" ry="1"/>
            <ellipse cx="3.449" cy=".391" rx="1" ry="1"/>
            <ellipse cx="5.712" cy="6.046" rx="1" ry="1"/>
            <ellipse cx="1.23" cy="6.046" rx="1" ry="1"/>
        </g>
        <g fill="#41479B">
            <path d="M16.325 13.814v.633a.482.482 0 0 1-.487.475.482.482 0 0 1-.487-.475v-.633h.974M16.325 12.312v.633a.482.482 0 0 1-.487.475.482.482 0 0 1-.487-.475v-.633h.974M16.325 15.33v.634a.482.482 0 0 1-.487.475.482.482 0 0 1-.487-.475v-.633h.974M17.636 13.814v.633a.482.482 0 0 1-.487.475.482.482 0 0 1-.487-.475v-.633h.974M15.013 13.814v.633a.482.482 0 0 1-.487.475.482.482 0 0 1-.486-.475v-.633h.973"/>
        </g>
    </g>
</svg>
